<svg width="16" height="13" viewBox="0 0 16 13" fill="none" xmlns="http://www.w3.org/2000/svg">
<path d="M0.184615 7.15C0.0615385 7.02 0 6.825 0 6.695C0 6.565 0.0615385 6.37 0.184615 6.24L1.04615 5.33C1.29231 5.07 1.66154 5.07 1.90769 5.33L1.96923 5.395L5.35385 9.23C5.47692 9.36 5.66154 9.36 5.78462 9.23L14.0308 0.195H14.0923C14.3385 -0.065 14.7077 -0.065 14.9538 0.195L15.8154 1.105C16.0615 1.365 16.0615 1.755 15.8154 2.015L5.96923 12.805C5.84615 12.935 5.72308 13 5.53846 13C5.35385 13 5.23077 12.935 5.10769 12.805L0.307692 7.345L0.184615 7.15Z" fill="#151615"/>
</svg>
